<svg data-v-2cb57da0="" version="1.0" xmlns="http://www.w3.org/2000/svg" xmlns:xlink="http://www.w3.org/1999/xlink" width="100%" height="100%" viewBox="80 90 180.000000 70.000000" preserveAspectRatio="xMidYMid meet" color-interpolation-filters="sRGB" style="margin: auto;"><rect data-v-2cb57da0="" x="0" y="0" width="100%" height="100%" fill="#ffffff" fill-opacity="0" class="background"></rect> <rect data-v-2cb57da0="" x="0" y="0" width="100%" height="100%" fill="url(#watermark)" fill-opacity="1" class="watermarklayer"></rect> <g data-v-2cb57da0="" class="iconmbgsvg" transform="translate(88.68499755859375,93.24563407897949)"><g fill="#000000" hollow-target="textNormalTran"><g opacity="1" transform="matrix(1,0,0,1,25.06500244140625,0)"><g><rect fill="#000000" fill-opacity="0" stroke-width="2" x="0" y="0" width="112.5" height="63.50873033346318" class="image-rect"></rect> <svg filter="url(#colors8780203853)" x="0" y="0" width="112.5" height="63.50873033346318" filtersec="colorsf3980340999" class="image-svg-svg primary" style="overflow: visible;"><svg xmlns="http://www.w3.org/2000/svg" xmlns:xlink="http://www.w3.org/1999/xlink" version="1.1" x="0px" y="0px" viewBox="-1 9.016 50 29.968" enable-background="new 0 0 48 48" xml:space="preserve"><g><ellipse stroke="#000000" stroke-width="2" stroke-linecap="round" stroke-miterlimit="10" cx="24" cy="23.042" rx="5.852" ry="7"></ellipse><line stroke="#000000" stroke-width="2" stroke-linecap="round" stroke-miterlimit="10" x1="23.557" y1="21.414" x2="24.443" y2="21.414"></line><line stroke="#000000" stroke-width="2" stroke-linecap="round" stroke-miterlimit="10" x1="1" y1="21.414" x2="18.148" y2="21.414"></line><circle stroke="#000000" stroke-width="2" stroke-linecap="round" stroke-miterlimit="10" cx="8.27" cy="23.725" r="2.311"></circle><line stroke="#000000" stroke-width="2" stroke-linecap="round" stroke-miterlimit="10" x1="47" y1="21.414" x2="29.852" y2="21.414"></line><circle stroke="#000000" stroke-width="2" stroke-linecap="round" stroke-miterlimit="10" cx="39.73" cy="23.725" r="2.311"></circle><line stroke="#000000" stroke-width="2" stroke-linecap="round" stroke-miterlimit="10" x1="24" y1="11.016" x2="24" y2="15.716"></line><line stroke="#000000" stroke-width="2" stroke-linecap="round" stroke-miterlimit="10" x1="16.54" y1="15.716" x2="31.46" y2="15.716"></line><line stroke="#000000" stroke-width="2" stroke-linecap="round" stroke-miterlimit="10" x1="24" y1="34.217" x2="24" y2="36.984"></line><line stroke="#000000" stroke-width="2" stroke-linecap="round" stroke-miterlimit="10" x1="11.521" y1="31.449" x2="11.521" y2="34.217"></line><line stroke="#000000" stroke-width="2" stroke-linecap="round" stroke-miterlimit="10" x1="15.145" y1="31.449" x2="15.145" y2="34.217"></line><line stroke="#000000" stroke-width="2" stroke-linecap="round" stroke-miterlimit="10" x1="34.228" y1="31.449" x2="34.228" y2="34.217"></line><line stroke="#000000" stroke-width="2" stroke-linecap="round" stroke-miterlimit="10" x1="37.851" y1="31.449" x2="37.851" y2="34.217"></line></g></svg></svg> <defs><filter id="colors8780203853"><feColorMatrix type="matrix" values="0 0 0 0 0.25  0 0 0 0 0.453125  0 0 0 0 0.7265625  0 0 0 1 0" class="icon-fecolormatrix"></feColorMatrix></filter> <filter id="colorsf3980340999"><feColorMatrix type="matrix" values="0 0 0 0 0.99609375  0 0 0 0 0.99609375  0 0 0 0 0.99609375  0 0 0 1 0" class="icon-fecolormatrix"></feColorMatrix></filter> <filter id="colorsb9434022254"><feColorMatrix type="matrix" values="0 0 0 0 0  0 0 0 0 0  0 0 0 0 0  0 0 0 1 0" class="icon-fecolormatrix"></feColorMatrix></filter></defs></g></g> <g transform="translate(0,7.634366989135742)"><g data-gra="path-name" fill-rule="" class="tp-name" opacity="1" transform="matrix(1,0,0,1,0,0)"><g transform="scale(1)"><g><path d="M6.43 2.81Q2.58 2.81 0.74 0.58-1.1-1.65-1.1-4.73L-1.1-4.73Q-1.1-6.88-0.33-7.73 0.44-8.58 1.4-9.02 2.37-9.46 2.53-9.63L2.53-9.63Q6.05-13.26 7.87-17.16L7.87-17.16 7.87-17.71Q7.87-19.75 8.55-20.73 9.24-21.73 10.34-21.73L10.34-21.73Q11.55-21.73 11.66-20.63L11.66-20.63Q11.66-20.35 11.52-19.8 11.38-19.25 11.38-18.64L11.38-18.64Q11.38-17.6 11.71-16.45 12.04-15.29 12.76-13.31L12.76-13.31Q13.64-10.89 14.11-9.13 14.57-7.37 14.57-5.55L14.57-5.55Q14.57-4.62 14.36-3.3L14.36-3.3Q18.09-4.24 20.84-9.52L20.84-9.52 21.5-9.02Q20.41-5.88 18.45-3.96 16.5-2.04 13.86-1.65L13.86-1.65Q12.98 0.55 11 1.68 9.02 2.81 6.43 2.81L6.43 2.81ZM10.01-3.41Q10.18-3.9 10.18-5.12L10.18-5.12Q10.12-6.88 9.79-8.58 9.46-10.29 8.8-12.98L8.8-12.98 8.3-14.96Q5.61-10.29 3.52-8.09L3.52-8.09Q4.46-6.49 6.16-5.2 7.87-3.9 10.01-3.41L10.01-3.41ZM6.05 0.39Q7.15 0.39 8.11-0.17 9.07-0.71 9.57-1.76L9.57-1.76Q7.42-2.2 5.61-3.44 3.79-4.67 2.69-6.11L2.69-6.11Q1.93-5.94 1.93-4.62L1.93-4.62Q1.93-2.64 3.02-1.13 4.13 0.39 6.05 0.39L6.05 0.39ZM24.31 2.53Q21.78 2.53 20.35 1.07 18.92-0.39 18.92-3.25L18.92-3.25Q18.92-5.39 19.75-8.72 20.57-12.04 21.95-15.79L21.95-15.79Q20.52-16.06 20.02-16.28L20.02-16.28 20.02-17.98Q21.34-17.82 22.66-17.71L22.66-17.71Q25.13-23.93 27.97-28.38 30.8-32.84 32.56-32.84L32.56-32.84Q33.16-32.84 33.63-32.4 34.1-31.96 34.1-31.24L34.1-31.24Q34.1-30.36 33.33-28.88 32.56-27.39 30.8-24.36L30.8-24.36Q28.38-20.3 27-17.55L27-17.55Q33.33-17.55 37.07-17.93L37.07-17.93 37.07-16.11Q30.58-15.46 26.02-15.46L26.02-15.46Q23.16-8.69 23.16-4.4L23.16-4.4Q23.16-2.15 23.87-1.21 24.59-0.28 26.13-0.28L26.13-0.28Q28.88-0.28 31.76-2.78 34.65-5.28 36.8-9.57L36.8-9.57 37.56-9.02Q35.31-3.9 31.73-0.69 28.16 2.53 24.31 2.53L24.31 2.53ZM38.22 2.58Q36.3 2.58 35.01 1.32 33.71 0.06 33.71-2.25L33.71-2.25Q33.71-5.45 36.05-9.4 38.39-13.37 42.02-16.11 45.65-18.86 49.28-18.86L49.28-18.86Q51.7-18.86 53.32-17.63 54.94-16.39 54.94-14.46L54.94-14.46Q54.94-11.94 51.81-11.82L51.81-11.82Q53.79-11.22 53.79-10.18L53.79-10.18Q53.79-9.79 53.41-9.02 53.02-8.25 52.52-7.42L52.52-7.42Q51.64-6 51.15-4.92 50.65-3.85 50.65-2.92L50.65-2.92Q50.65-2.09 51.07-1.51 51.48-0.94 52.3-0.94L52.3-0.94Q53.84-0.94 56.24-3.08 58.63-5.22 60.88-9.52L60.88-9.52 61.93-8.47Q59.89-3.9 56.87-1.13 53.84 1.65 50.76 1.65L50.76 1.65Q48.56 1.65 47.38 0.19 46.2-1.26 46.2-3.14L46.2-3.14Q43.72-0.17 41.96 1.21 40.2 2.58 38.22 2.58L38.22 2.58ZM39.38-0.22Q41.3-0.22 43.86-3 46.42-5.78 49.66-10.23L49.66-10.23 50.76-11.71Q50.93-11.99 51.2-11.99L51.2-11.99 51.42-11.94Q51.7-12.81 51.7-13.97L51.7-13.97Q51.7-16.83 49.39-16.83L49.39-16.83Q46.97-16.83 44.33-14.24 41.69-11.66 39.9-8.09 38.11-4.51 38.11-1.98L38.11-1.98Q38.11-1.04 38.42-0.63 38.72-0.22 39.38-0.22L39.38-0.22ZM69.74 1.43Q67.7 1.43 66.44 0.36 65.17-0.71 65.17-2.53L65.17-2.53Q65.17-3.58 65.59-4.81 66-6.05 66.83-7.81L66.83-7.81Q67.54-9.35 67.92-10.42 68.31-11.49 68.31-12.32L68.31-12.32Q68.31-14.41 65.56-15.84L65.56-15.84Q64.46-13.09 63-10.29 61.54-7.48 60.39-5.55L60.39-5.55 59.56-7.15Q62.09-11.66 64.02-17.11L64.02-17.11Q63.47-17.66 63.47-18.59L63.47-18.59Q63.47-20.02 64.35-21.29 65.23-22.55 66.05-22.55L66.05-22.55Q66.61-22.55 66.96-21.89 67.32-21.23 67.32-20.79L67.32-20.79Q67.32-20.57 67.07-19.83 66.83-19.09 66.72-18.75L66.72-18.75Q66.77-18.37 67.16-18.01 67.54-17.66 68.58-17L68.58-17Q70.51-15.73 71.58-14.55 72.66-13.37 72.66-11.38L72.66-11.38Q72.66-10.18 72.24-8.96 71.83-7.75 71-6.05L71-6.05Q69.8-3.63 69.8-2.58L69.8-2.58Q69.8-1.32 71.17-1.32L71.17-1.32Q72.82-1.32 74.77-2.64 76.72-3.96 78.35-5.86 79.97-7.75 80.74-9.4L80.74-9.4 82.06-8.42Q80.96-5.94 78.98-3.69 77-1.43 74.55 0 72.11 1.43 69.74 1.43L69.74 1.43ZM76.45 15.4Q75.79 15.4 75.05 14.9 74.31 14.41 74.25 14.03L74.25 14.03Q76.67 6.99 77.8 3 78.92-0.99 79.67-5.47 80.41-9.96 81.62-19.25L81.62-19.25Q81.73-20.02 81.92-20.27 82.11-20.52 82.94-20.52L82.94-20.52Q84.53-20.52 85.36-19.66 86.19-18.81 86.19-17.6L86.19-17.6Q86.19-16.28 85.42-12.43L85.42-12.43Q87.17-15.13 89.46-16.91 91.74-18.7 94.38-18.7L94.38-18.7Q97.08-18.7 98.84-16.86 100.59-15.02 100.59-12.1L100.59-12.1Q100.59-9.19 98.86-5.91 97.13-2.64 94.05-0.44 90.97 1.76 87.23 1.76L87.23 1.76Q85.53 1.76 84.45 1.32 83.38 0.88 83.38 0.33L83.38 0.33Q83.38-0.22 84.7-0.22L84.7-0.22Q88-0.28 90.64-2.01 93.28-3.74 94.77-6.33 96.25-8.91 96.25-11.44L96.25-11.44Q96.25-13.2 95.48-14.36 94.71-15.51 93.17-15.51L93.17-15.51Q91.47-15.51 89.65-14.11 87.84-12.71 86.41-10.72 84.97-8.74 84.2-7.04L84.2-7.04Q83.27-3.79 81.78 2.31L81.78 2.31Q80.19 9.07 79.06 12.24 77.94 15.4 76.45 15.4L76.45 15.4ZM106.59 1.76Q104.17 1.76 102.91 0.3 101.64-1.16 101.64-3.46L101.64-3.46Q101.64-5.72 102.6-8.2 103.56-10.67 105.11-12.35 106.65-14.03 108.3-14.03L108.3-14.03Q108.79-14.03 109.95-13.59L109.95-13.59Q110.28-16.11 111.76-17.77 113.25-19.41 115.67-19.41L115.67-19.41Q120.01-19.41 120.01-14.96L120.01-14.96Q120.01-12.87 119.1-10.45 118.2-8.03 116.6-5.67L116.6-5.67Q117.59-5.33 118.2-5.33L118.2-5.33Q120.84-5.33 122.65-7.09 124.47-8.86 125.56-11.28 126.67-13.7 127.71-17.05L127.71-17.05Q127.22-17.66 127.22-18.43L127.22-18.43Q127.22-19.52 127.68-20.46 128.15-21.39 128.78-21.95 129.42-22.5 129.86-22.5L129.86-22.5Q131.06-22.5 131.06-20.79L131.06-20.79Q131.06-20.57 130.76-19.77 130.46-18.98 130.46-18.81L130.46-18.81Q130.46-18.43 130.87-18.09 131.28-17.77 132.22-17.11L132.22-17.11Q134.15-15.89 135.27-14.66 136.4-13.42 136.4-11.44L136.4-11.44Q136.4-10.23 135.99-8.99 135.57-7.75 134.86-6.05L134.86-6.05Q133.76-3.63 133.76-2.58L133.76-2.58Q133.76-1.81 134.12-1.54 134.47-1.26 135.13-1.26L135.13-1.26Q136.73-1.26 138.63-2.58 140.53-3.9 142.12-5.8 143.72-7.7 144.43-9.35L144.43-9.35 145.53-8.58Q143.66-4.57 140.44-1.54 137.22 1.49 133.76 1.49L133.76 1.49Q131.72 1.49 130.43 0.41 129.14-0.66 129.14-2.42L129.14-2.42Q129.14-3.52 129.53-4.76 129.91-6 130.68-7.75L130.68-7.75Q131.34-9.4 131.67-10.37 132-11.33 132-12.15L132-12.15Q132-14.41 129.09-15.95L129.09-15.95Q127.77-12.04 126.58-9.54 125.4-7.04 123.26-5.14 121.11-3.25 117.87-3.25L117.87-3.25Q116.49-3.25 115.23-3.74L115.23-3.74Q113.19-1.26 110.94 0.25 108.68 1.76 106.59 1.76L106.59 1.76ZM114.9-7.04Q116.16-8.91 116.85-10.89 117.54-12.87 117.54-14.63L117.54-14.63Q117.54-15.84 117.09-16.5 116.66-17.16 116.11-17.16L116.11-17.16Q114.95-17.16 113.93-15.73 112.92-14.3 112.92-12.27L112.92-12.27Q112.92-11 113.49-9.57 114.07-8.14 114.9-7.04L114.9-7.04ZM107.69-0.99Q108.73-0.99 110.22-2.12 111.71-3.25 113.25-5L113.25-5Q110-7.65 109.89-13.14L109.89-13.14Q108.68-11.77 107.31-8.72 105.93-5.67 105.93-3.9L105.93-3.9Q105.93-2.48 106.4-1.73 106.87-0.99 107.69-0.99L107.69-0.99ZM148.28 2.53Q145.75 2.53 144.32 1.07 142.89-0.39 142.89-3.25L142.89-3.25Q142.89-5.39 143.72-8.72 144.54-12.04 145.91-15.79L145.91-15.79Q144.49-16.06 143.99-16.28L143.99-16.28 143.99-17.98Q145.31-17.82 146.63-17.71L146.63-17.71Q149.11-23.93 151.94-28.38 154.77-32.84 156.53-32.84L156.53-32.84Q157.13-32.84 157.6-32.4 158.07-31.96 158.07-31.24L158.07-31.24Q158.07-30.36 157.3-28.88 156.53-27.39 154.77-24.36L154.77-24.36Q152.35-20.3 150.97-17.55L150.97-17.55Q157.3-17.55 161.04-17.93L161.04-17.93 161.04-16.11Q154.55-15.46 149.99-15.46L149.99-15.46Q147.13-8.69 147.13-4.4L147.13-4.4Q147.13-2.15 147.84-1.21 148.56-0.28 150.09-0.28L150.09-0.28Q152.84-0.28 155.73-2.78 158.62-5.28 160.77-9.57L160.77-9.57 161.53-9.02Q159.28-3.9 155.71-0.69 152.13 2.53 148.28 2.53L148.28 2.53Z" transform="translate(1.100000023841858, 32.84000015258789)"></path></g> <!----> <!----> <!----> <!----> <!----> <!----> <!----></g></g> <!----></g></g></g><defs v-gra="od"></defs></svg>